<mxfile host="app.diagrams.net" agent="Mozilla/5.0 (Windows NT 10.0; Win64; x64) AppleWebKit/537.36 (KHTML, like Gecko) Chrome/140.0.0.0 Safari/537.36" version="28.2.4">
  <diagram name="Page-1" id="NZuQ4O7f3G0Cdv8Sl80c">
    <mxGraphModel dx="1426" dy="823" grid="1" gridSize="10" guides="1" tooltips="1" connect="1" arrows="1" fold="1" page="1" pageScale="1" pageWidth="850" pageHeight="1100" math="0" shadow="0">
      <root>
        <mxCell id="0" />
        <mxCell id="1" parent="0" />
        <mxCell id="RK0en1vMOYa4nUFbqt7z-1" value="Main Program Loop" style="swimlane;whiteSpace=wrap;html=1;fillColor=#008a00;fontColor=#ffffff;strokeColor=#005700;" vertex="1" parent="1">
          <mxGeometry x="40" y="40" width="440" height="440" as="geometry" />
        </mxCell>
        <mxCell id="RK0en1vMOYa4nUFbqt7z-4" value="" style="edgeStyle=orthogonalEdgeStyle;rounded=0;orthogonalLoop=1;jettySize=auto;html=1;fillColor=#1ba1e2;strokeColor=#006EAF;" edge="1" parent="RK0en1vMOYa4nUFbqt7z-1" source="RK0en1vMOYa4nUFbqt7z-2" target="RK0en1vMOYa4nUFbqt7z-3">
          <mxGeometry relative="1" as="geometry" />
        </mxCell>
        <mxCell id="RK0en1vMOYa4nUFbqt7z-2" value="Start" style="strokeWidth=2;html=1;shape=mxgraph.flowchart.start_1;whiteSpace=wrap;fillColor=#fa6800;fontColor=#000000;strokeColor=#C73500;" vertex="1" parent="RK0en1vMOYa4nUFbqt7z-1">
          <mxGeometry x="170" y="50" width="100" height="60" as="geometry" />
        </mxCell>
        <mxCell id="RK0en1vMOYa4nUFbqt7z-6" value="" style="edgeStyle=orthogonalEdgeStyle;rounded=0;orthogonalLoop=1;jettySize=auto;html=1;fillColor=#1ba1e2;strokeColor=#006EAF;" edge="1" parent="RK0en1vMOYa4nUFbqt7z-1" source="RK0en1vMOYa4nUFbqt7z-3" target="RK0en1vMOYa4nUFbqt7z-5">
          <mxGeometry relative="1" as="geometry" />
        </mxCell>
        <mxCell id="RK0en1vMOYa4nUFbqt7z-3" value="Initialize&lt;div&gt;play_again = &#39;y&#39;&lt;/div&gt;" style="shape=process;whiteSpace=wrap;html=1;backgroundOutline=1;fillColor=#fa6800;fontColor=#000000;strokeColor=#C73500;" vertex="1" parent="RK0en1vMOYa4nUFbqt7z-1">
          <mxGeometry x="160" y="170" width="120" height="60" as="geometry" />
        </mxCell>
        <mxCell id="RK0en1vMOYa4nUFbqt7z-5" value="Is&lt;div&gt;play_again.lower() == &#39;y&#39;&lt;/div&gt;" style="strokeWidth=2;html=1;shape=mxgraph.flowchart.decision;whiteSpace=wrap;fillColor=#fa6800;fontColor=#000000;strokeColor=#C73500;" vertex="1" parent="RK0en1vMOYa4nUFbqt7z-1">
          <mxGeometry x="155" y="290" width="130" height="130" as="geometry" />
        </mxCell>
        <mxCell id="RK0en1vMOYa4nUFbqt7z-7" value="&amp;nbsp; &amp;nbsp; &amp;nbsp; &amp;nbsp; Single Game Instance" style="swimlane;whiteSpace=wrap;html=1;align=left;fillColor=#60a917;fontColor=#ffffff;strokeColor=#2D7600;" vertex="1" parent="1">
          <mxGeometry x="590" y="520" width="240" height="360" as="geometry" />
        </mxCell>
        <mxCell id="RK0en1vMOYa4nUFbqt7z-15" style="edgeStyle=orthogonalEdgeStyle;rounded=0;orthogonalLoop=1;jettySize=auto;html=1;fillColor=#1ba1e2;strokeColor=#006EAF;" edge="1" parent="RK0en1vMOYa4nUFbqt7z-7" source="RK0en1vMOYa4nUFbqt7z-13" target="RK0en1vMOYa4nUFbqt7z-14">
          <mxGeometry relative="1" as="geometry" />
        </mxCell>
        <mxCell id="RK0en1vMOYa4nUFbqt7z-13" value="Output&lt;div&gt;Welcome Messages &amp;amp; Rules&lt;/div&gt;" style="shape=parallelogram;html=1;strokeWidth=2;perimeter=parallelogramPerimeter;whiteSpace=wrap;rounded=1;arcSize=12;size=0.23;fillColor=#fa6800;fontColor=#000000;strokeColor=#C73500;" vertex="1" parent="RK0en1vMOYa4nUFbqt7z-7">
          <mxGeometry x="20" y="100" width="200" height="60" as="geometry" />
        </mxCell>
        <mxCell id="RK0en1vMOYa4nUFbqt7z-14" value="Output&lt;div&gt;Welcome Messages &amp;amp; Rules&lt;/div&gt;" style="shape=parallelogram;html=1;strokeWidth=2;perimeter=parallelogramPerimeter;whiteSpace=wrap;rounded=1;arcSize=12;size=0.23;fillColor=#fa6800;fontColor=#000000;strokeColor=#C73500;" vertex="1" parent="RK0en1vMOYa4nUFbqt7z-7">
          <mxGeometry x="20" y="240" width="200" height="60" as="geometry" />
        </mxCell>
        <mxCell id="RK0en1vMOYa4nUFbqt7z-16" style="edgeStyle=orthogonalEdgeStyle;rounded=0;orthogonalLoop=1;jettySize=auto;html=1;exitX=1;exitY=0.5;exitDx=0;exitDy=0;exitPerimeter=0;entryX=0.5;entryY=0;entryDx=0;entryDy=0;fillColor=#1ba1e2;strokeColor=#006EAF;" edge="1" parent="1" source="RK0en1vMOYa4nUFbqt7z-5" target="RK0en1vMOYa4nUFbqt7z-13">
          <mxGeometry relative="1" as="geometry" />
        </mxCell>
        <mxCell id="RK0en1vMOYa4nUFbqt7z-17" value="YES" style="edgeLabel;html=1;align=center;verticalAlign=middle;resizable=0;points=[];" vertex="1" connectable="0" parent="RK0en1vMOYa4nUFbqt7z-16">
          <mxGeometry x="-0.3009" y="-2" relative="1" as="geometry">
            <mxPoint as="offset" />
          </mxGeometry>
        </mxCell>
        <mxCell id="RK0en1vMOYa4nUFbqt7z-22" value="" style="edgeStyle=orthogonalEdgeStyle;rounded=0;orthogonalLoop=1;jettySize=auto;html=1;fillColor=#1ba1e2;strokeColor=#006EAF;" edge="1" parent="1" source="RK0en1vMOYa4nUFbqt7z-18" target="RK0en1vMOYa4nUFbqt7z-21">
          <mxGeometry relative="1" as="geometry" />
        </mxCell>
        <mxCell id="RK0en1vMOYa4nUFbqt7z-18" value="Print&lt;div&gt;&quot;Thank you for playing!&quot;&lt;/div&gt;" style="shape=parallelogram;html=1;strokeWidth=2;perimeter=parallelogramPerimeter;whiteSpace=wrap;rounded=1;arcSize=12;size=0.23;fillColor=#fa6800;fontColor=#000000;strokeColor=#C73500;" vertex="1" parent="1">
          <mxGeometry x="160" y="580" width="200" height="60" as="geometry" />
        </mxCell>
        <mxCell id="RK0en1vMOYa4nUFbqt7z-19" style="edgeStyle=orthogonalEdgeStyle;rounded=0;orthogonalLoop=1;jettySize=auto;html=1;entryX=0.5;entryY=0;entryDx=0;entryDy=0;fillColor=#1ba1e2;strokeColor=#006EAF;" edge="1" parent="1" source="RK0en1vMOYa4nUFbqt7z-5" target="RK0en1vMOYa4nUFbqt7z-18">
          <mxGeometry relative="1" as="geometry" />
        </mxCell>
        <mxCell id="RK0en1vMOYa4nUFbqt7z-92" value="NO" style="edgeLabel;html=1;align=center;verticalAlign=middle;resizable=0;points=[];fontColor=light-dark(default, #ff0000);" vertex="1" connectable="0" parent="RK0en1vMOYa4nUFbqt7z-19">
          <mxGeometry x="0.25" y="4" relative="1" as="geometry">
            <mxPoint x="-4" y="-15" as="offset" />
          </mxGeometry>
        </mxCell>
        <mxCell id="RK0en1vMOYa4nUFbqt7z-21" value="End" style="html=1;dashed=0;whiteSpace=wrap;shape=mxgraph.dfd.start;fillColor=#fa6800;fontColor=#000000;strokeColor=#C73500;" vertex="1" parent="1">
          <mxGeometry x="220" y="720" width="80" height="30" as="geometry" />
        </mxCell>
        <mxCell id="RK0en1vMOYa4nUFbqt7z-23" value="&amp;nbsp; &amp;nbsp; &amp;nbsp; &amp;nbsp; &amp;nbsp;Guessing Loop (10 Tries)" style="swimlane;whiteSpace=wrap;html=1;align=left;fillColor=#60a917;fontColor=#ffffff;strokeColor=#2D7600;" vertex="1" parent="1">
          <mxGeometry x="500" y="920" width="350" height="1200" as="geometry">
            <mxRectangle x="410" y="960" width="180" height="30" as="alternateBounds" />
          </mxGeometry>
        </mxCell>
        <mxCell id="RK0en1vMOYa4nUFbqt7z-32" value="" style="edgeStyle=orthogonalEdgeStyle;rounded=0;orthogonalLoop=1;jettySize=auto;html=1;fillColor=#1ba1e2;strokeColor=#006EAF;" edge="1" parent="RK0en1vMOYa4nUFbqt7z-23" source="RK0en1vMOYa4nUFbqt7z-28" target="RK0en1vMOYa4nUFbqt7z-31">
          <mxGeometry relative="1" as="geometry" />
        </mxCell>
        <mxCell id="RK0en1vMOYa4nUFbqt7z-28" value="For&lt;div&gt;guess_count from 1 to 100&lt;/div&gt;" style="shape=process;whiteSpace=wrap;html=1;backgroundOutline=1;fillColor=#fa6800;fontColor=#000000;strokeColor=#C73500;" vertex="1" parent="RK0en1vMOYa4nUFbqt7z-23">
          <mxGeometry x="150" y="80" width="120" height="60" as="geometry" />
        </mxCell>
        <mxCell id="RK0en1vMOYa4nUFbqt7z-34" value="" style="edgeStyle=orthogonalEdgeStyle;rounded=0;orthogonalLoop=1;jettySize=auto;html=1;fillColor=#1ba1e2;strokeColor=#006EAF;" edge="1" parent="RK0en1vMOYa4nUFbqt7z-23" source="RK0en1vMOYa4nUFbqt7z-31" target="RK0en1vMOYa4nUFbqt7z-33">
          <mxGeometry relative="1" as="geometry" />
        </mxCell>
        <mxCell id="RK0en1vMOYa4nUFbqt7z-31" value="Get&lt;div&gt;Valid User Guess&lt;/div&gt;" style="html=1;strokeWidth=2;shape=manualInput;whiteSpace=wrap;rounded=1;size=26;arcSize=11;fillColor=#fa6800;fontColor=#000000;strokeColor=#C73500;" vertex="1" parent="RK0en1vMOYa4nUFbqt7z-23">
          <mxGeometry x="160" y="220" width="100" height="60" as="geometry" />
        </mxCell>
        <mxCell id="RK0en1vMOYa4nUFbqt7z-36" style="edgeStyle=orthogonalEdgeStyle;rounded=0;orthogonalLoop=1;jettySize=auto;html=1;fillColor=#1ba1e2;strokeColor=#006EAF;" edge="1" parent="RK0en1vMOYa4nUFbqt7z-23" source="RK0en1vMOYa4nUFbqt7z-33" target="RK0en1vMOYa4nUFbqt7z-35">
          <mxGeometry relative="1" as="geometry" />
        </mxCell>
        <mxCell id="RK0en1vMOYa4nUFbqt7z-74" value="NO" style="edgeLabel;html=1;align=center;verticalAlign=middle;resizable=0;points=[];" vertex="1" connectable="0" parent="RK0en1vMOYa4nUFbqt7z-36">
          <mxGeometry x="-0.15" relative="1" as="geometry">
            <mxPoint as="offset" />
          </mxGeometry>
        </mxCell>
        <mxCell id="RK0en1vMOYa4nUFbqt7z-33" value="Is&lt;div&gt;guess == random_number?&lt;/div&gt;" style="strokeWidth=2;html=1;shape=mxgraph.flowchart.decision;whiteSpace=wrap;fillColor=#fa6800;fontColor=#000000;strokeColor=#C73500;" vertex="1" parent="RK0en1vMOYa4nUFbqt7z-23">
          <mxGeometry x="120" y="360" width="180" height="130" as="geometry" />
        </mxCell>
        <mxCell id="RK0en1vMOYa4nUFbqt7z-35" value="Is this the last guess&lt;div&gt;(guess_count == 10)?&lt;/div&gt;" style="strokeWidth=2;html=1;shape=mxgraph.flowchart.decision;whiteSpace=wrap;fillColor=#fa6800;fontColor=#000000;strokeColor=#C73500;" vertex="1" parent="RK0en1vMOYa4nUFbqt7z-23">
          <mxGeometry x="120" y="570" width="180" height="130" as="geometry" />
        </mxCell>
        <mxCell id="RK0en1vMOYa4nUFbqt7z-41" style="edgeStyle=orthogonalEdgeStyle;rounded=0;orthogonalLoop=1;jettySize=auto;html=1;entryX=0.5;entryY=0;entryDx=0;entryDy=0;exitX=0;exitY=0.5;exitDx=0;exitDy=0;exitPerimeter=0;fillColor=#1ba1e2;strokeColor=#006EAF;" edge="1" parent="RK0en1vMOYa4nUFbqt7z-23" source="RK0en1vMOYa4nUFbqt7z-37" target="RK0en1vMOYa4nUFbqt7z-40">
          <mxGeometry relative="1" as="geometry" />
        </mxCell>
        <mxCell id="RK0en1vMOYa4nUFbqt7z-71" value="YES" style="edgeLabel;html=1;align=center;verticalAlign=middle;resizable=0;points=[];" vertex="1" connectable="0" parent="RK0en1vMOYa4nUFbqt7z-41">
          <mxGeometry x="0.3231" y="-1" relative="1" as="geometry">
            <mxPoint as="offset" />
          </mxGeometry>
        </mxCell>
        <mxCell id="RK0en1vMOYa4nUFbqt7z-42" style="edgeStyle=orthogonalEdgeStyle;rounded=0;orthogonalLoop=1;jettySize=auto;html=1;entryX=0.5;entryY=0;entryDx=0;entryDy=0;exitX=1;exitY=0.5;exitDx=0;exitDy=0;exitPerimeter=0;fillColor=#1ba1e2;strokeColor=#006EAF;" edge="1" parent="RK0en1vMOYa4nUFbqt7z-23" source="RK0en1vMOYa4nUFbqt7z-37" target="RK0en1vMOYa4nUFbqt7z-39">
          <mxGeometry relative="1" as="geometry" />
        </mxCell>
        <mxCell id="RK0en1vMOYa4nUFbqt7z-72" value="NO" style="edgeLabel;html=1;align=center;verticalAlign=middle;resizable=0;points=[];" vertex="1" connectable="0" parent="RK0en1vMOYa4nUFbqt7z-42">
          <mxGeometry x="0.1784" y="-1" relative="1" as="geometry">
            <mxPoint as="offset" />
          </mxGeometry>
        </mxCell>
        <mxCell id="RK0en1vMOYa4nUFbqt7z-37" value="Is guess &amp;gt; random_number&lt;span style=&quot;background-color: transparent;&quot;&gt;?&lt;/span&gt;" style="strokeWidth=2;html=1;shape=mxgraph.flowchart.decision;whiteSpace=wrap;fillColor=#fa6800;fontColor=#000000;strokeColor=#C73500;" vertex="1" parent="RK0en1vMOYa4nUFbqt7z-23">
          <mxGeometry x="120" y="780" width="180" height="130" as="geometry" />
        </mxCell>
        <mxCell id="RK0en1vMOYa4nUFbqt7z-38" value="" style="edgeStyle=orthogonalEdgeStyle;rounded=0;orthogonalLoop=1;jettySize=auto;html=1;" edge="1" parent="RK0en1vMOYa4nUFbqt7z-23" source="RK0en1vMOYa4nUFbqt7z-35" target="RK0en1vMOYa4nUFbqt7z-37">
          <mxGeometry relative="1" as="geometry" />
        </mxCell>
        <mxCell id="RK0en1vMOYa4nUFbqt7z-73" value="NO" style="edgeLabel;html=1;align=center;verticalAlign=middle;resizable=0;points=[];" vertex="1" connectable="0" parent="RK0en1vMOYa4nUFbqt7z-38">
          <mxGeometry x="-0.1" y="-2" relative="1" as="geometry">
            <mxPoint as="offset" />
          </mxGeometry>
        </mxCell>
        <mxCell id="RK0en1vMOYa4nUFbqt7z-44" style="edgeStyle=orthogonalEdgeStyle;rounded=0;orthogonalLoop=1;jettySize=auto;html=1;entryX=0.5;entryY=0;entryDx=0;entryDy=0;exitX=0;exitY=1;exitDx=0;exitDy=0;fillColor=#1ba1e2;strokeColor=#006EAF;" edge="1" parent="RK0en1vMOYa4nUFbqt7z-23" source="RK0en1vMOYa4nUFbqt7z-39" target="RK0en1vMOYa4nUFbqt7z-43">
          <mxGeometry relative="1" as="geometry">
            <Array as="points">
              <mxPoint x="155" y="1050" />
            </Array>
          </mxGeometry>
        </mxCell>
        <mxCell id="RK0en1vMOYa4nUFbqt7z-39" value="Output&lt;div&gt;&#39;Too Low&#39;&lt;/div&gt;" style="shape=parallelogram;html=1;strokeWidth=2;perimeter=parallelogramPerimeter;whiteSpace=wrap;rounded=1;arcSize=12;size=0.23;fillColor=#fa6800;fontColor=#000000;strokeColor=#C73500;" vertex="1" parent="RK0en1vMOYa4nUFbqt7z-23">
          <mxGeometry x="170" y="990" width="120" height="60" as="geometry" />
        </mxCell>
        <mxCell id="RK0en1vMOYa4nUFbqt7z-45" style="edgeStyle=orthogonalEdgeStyle;rounded=0;orthogonalLoop=1;jettySize=auto;html=1;entryX=0;entryY=0;entryDx=0;entryDy=0;exitX=0.5;exitY=1;exitDx=0;exitDy=0;fillColor=#1ba1e2;strokeColor=#006EAF;" edge="1" parent="RK0en1vMOYa4nUFbqt7z-23" source="RK0en1vMOYa4nUFbqt7z-40" target="RK0en1vMOYa4nUFbqt7z-43">
          <mxGeometry relative="1" as="geometry">
            <Array as="points">
              <mxPoint x="100" y="1130" />
            </Array>
          </mxGeometry>
        </mxCell>
        <mxCell id="RK0en1vMOYa4nUFbqt7z-40" value="Output&lt;div&gt;&#39;Too High&#39;&lt;/div&gt;" style="shape=parallelogram;html=1;strokeWidth=2;perimeter=parallelogramPerimeter;whiteSpace=wrap;rounded=1;arcSize=12;size=0.23;fillColor=#fa6800;fontColor=#000000;strokeColor=#C73500;" vertex="1" parent="RK0en1vMOYa4nUFbqt7z-23">
          <mxGeometry x="20" y="990" width="120" height="60" as="geometry" />
        </mxCell>
        <mxCell id="RK0en1vMOYa4nUFbqt7z-46" style="edgeStyle=orthogonalEdgeStyle;rounded=0;orthogonalLoop=1;jettySize=auto;html=1;entryX=1;entryY=0.5;entryDx=0;entryDy=0;exitX=1;exitY=0.5;exitDx=0;exitDy=0;fillColor=#1ba1e2;strokeColor=#006EAF;" edge="1" parent="RK0en1vMOYa4nUFbqt7z-23" source="RK0en1vMOYa4nUFbqt7z-43" target="RK0en1vMOYa4nUFbqt7z-28">
          <mxGeometry relative="1" as="geometry">
            <Array as="points">
              <mxPoint x="340" y="1160" />
              <mxPoint x="340" y="110" />
            </Array>
          </mxGeometry>
        </mxCell>
        <mxCell id="RK0en1vMOYa4nUFbqt7z-43" value="Next guess" style="shape=process;whiteSpace=wrap;html=1;backgroundOutline=1;fillColor=#fa6800;fontColor=#000000;strokeColor=#C73500;" vertex="1" parent="RK0en1vMOYa4nUFbqt7z-23">
          <mxGeometry x="95" y="1130" width="120" height="60" as="geometry" />
        </mxCell>
        <mxCell id="RK0en1vMOYa4nUFbqt7z-30" style="edgeStyle=orthogonalEdgeStyle;rounded=0;orthogonalLoop=1;jettySize=auto;html=1;entryX=0.5;entryY=0;entryDx=0;entryDy=0;fillColor=#1ba1e2;strokeColor=#006EAF;" edge="1" parent="1" source="RK0en1vMOYa4nUFbqt7z-14" target="RK0en1vMOYa4nUFbqt7z-28">
          <mxGeometry relative="1" as="geometry" />
        </mxCell>
        <mxCell id="RK0en1vMOYa4nUFbqt7z-53" value="Play Again Prompt" style="swimlane;whiteSpace=wrap;html=1;align=center;fillColor=#60a917;fontColor=#ffffff;strokeColor=#2D7600;" vertex="1" parent="1">
          <mxGeometry y="1600" width="480" height="600" as="geometry">
            <mxRectangle x="410" y="960" width="180" height="30" as="alternateBounds" />
          </mxGeometry>
        </mxCell>
        <mxCell id="RK0en1vMOYa4nUFbqt7z-81" style="edgeStyle=orthogonalEdgeStyle;rounded=0;orthogonalLoop=1;jettySize=auto;html=1;entryX=1;entryY=0.5;entryDx=0;entryDy=0;fillColor=#1ba1e2;strokeColor=#006EAF;" edge="1" parent="RK0en1vMOYa4nUFbqt7z-53" source="RK0en1vMOYa4nUFbqt7z-66" target="RK0en1vMOYa4nUFbqt7z-79">
          <mxGeometry relative="1" as="geometry" />
        </mxCell>
        <mxCell id="RK0en1vMOYa4nUFbqt7z-66" value="Output&lt;div&gt;&#39;You ran out of tries!&#39;&lt;/div&gt;" style="shape=parallelogram;html=1;strokeWidth=2;perimeter=parallelogramPerimeter;whiteSpace=wrap;rounded=1;arcSize=12;size=0.23;fillColor=#fa6800;fontColor=#000000;strokeColor=#C73500;" vertex="1" parent="RK0en1vMOYa4nUFbqt7z-53">
          <mxGeometry x="260" y="100" width="180" height="60" as="geometry" />
        </mxCell>
        <mxCell id="RK0en1vMOYa4nUFbqt7z-80" style="edgeStyle=orthogonalEdgeStyle;rounded=0;orthogonalLoop=1;jettySize=auto;html=1;entryX=0;entryY=0.5;entryDx=0;entryDy=0;fillColor=#1ba1e2;strokeColor=#006EAF;" edge="1" parent="RK0en1vMOYa4nUFbqt7z-53" source="RK0en1vMOYa4nUFbqt7z-68" target="RK0en1vMOYa4nUFbqt7z-79">
          <mxGeometry relative="1" as="geometry" />
        </mxCell>
        <mxCell id="RK0en1vMOYa4nUFbqt7z-68" value="Output&lt;div&gt;&#39;Sucess&#39;&lt;/div&gt;" style="shape=parallelogram;html=1;strokeWidth=2;perimeter=parallelogramPerimeter;whiteSpace=wrap;rounded=1;arcSize=12;size=0.23;fillColor=#fa6800;fontColor=#000000;strokeColor=#C73500;" vertex="1" parent="RK0en1vMOYa4nUFbqt7z-53">
          <mxGeometry x="40" y="100" width="200" height="60" as="geometry" />
        </mxCell>
        <mxCell id="RK0en1vMOYa4nUFbqt7z-83" value="" style="edgeStyle=orthogonalEdgeStyle;rounded=0;orthogonalLoop=1;jettySize=auto;html=1;fillColor=#1ba1e2;strokeColor=#006EAF;" edge="1" parent="RK0en1vMOYa4nUFbqt7z-53" source="RK0en1vMOYa4nUFbqt7z-79" target="RK0en1vMOYa4nUFbqt7z-82">
          <mxGeometry relative="1" as="geometry" />
        </mxCell>
        <mxCell id="RK0en1vMOYa4nUFbqt7z-79" value="Ask&lt;div&gt;&#39;Play Again?&#39;&lt;/div&gt;" style="html=1;strokeWidth=2;shape=manualInput;whiteSpace=wrap;rounded=1;size=26;arcSize=11;fillColor=#fa6800;fontColor=#000000;strokeColor=#C73500;" vertex="1" parent="RK0en1vMOYa4nUFbqt7z-53">
          <mxGeometry x="190" y="270" width="100" height="60" as="geometry" />
        </mxCell>
        <mxCell id="RK0en1vMOYa4nUFbqt7z-84" style="edgeStyle=orthogonalEdgeStyle;rounded=0;orthogonalLoop=1;jettySize=auto;html=1;entryX=1;entryY=0.5;entryDx=0;entryDy=0;exitX=1;exitY=0.5;exitDx=0;exitDy=0;exitPerimeter=0;fillColor=#1ba1e2;strokeColor=#006EAF;" edge="1" parent="RK0en1vMOYa4nUFbqt7z-53" source="RK0en1vMOYa4nUFbqt7z-82" target="RK0en1vMOYa4nUFbqt7z-79">
          <mxGeometry relative="1" as="geometry">
            <Array as="points">
              <mxPoint x="400" y="455" />
              <mxPoint x="400" y="300" />
            </Array>
          </mxGeometry>
        </mxCell>
        <mxCell id="RK0en1vMOYa4nUFbqt7z-85" value="NO" style="edgeLabel;html=1;align=center;verticalAlign=middle;resizable=0;points=[];" vertex="1" connectable="0" parent="RK0en1vMOYa4nUFbqt7z-84">
          <mxGeometry x="-0.2596" y="-1" relative="1" as="geometry">
            <mxPoint as="offset" />
          </mxGeometry>
        </mxCell>
        <mxCell id="RK0en1vMOYa4nUFbqt7z-87" style="edgeStyle=orthogonalEdgeStyle;rounded=0;orthogonalLoop=1;jettySize=auto;html=1;entryX=1;entryY=0.5;entryDx=0;entryDy=0;fillColor=#1ba1e2;strokeColor=#006EAF;" edge="1" parent="RK0en1vMOYa4nUFbqt7z-53" source="RK0en1vMOYa4nUFbqt7z-82" target="RK0en1vMOYa4nUFbqt7z-86">
          <mxGeometry relative="1" as="geometry" />
        </mxCell>
        <mxCell id="RK0en1vMOYa4nUFbqt7z-88" value="YES" style="edgeLabel;html=1;align=center;verticalAlign=middle;resizable=0;points=[];" vertex="1" connectable="0" parent="RK0en1vMOYa4nUFbqt7z-87">
          <mxGeometry x="-0.1231" y="2" relative="1" as="geometry">
            <mxPoint as="offset" />
          </mxGeometry>
        </mxCell>
        <mxCell id="RK0en1vMOYa4nUFbqt7z-82" value="Is&amp;nbsp;&lt;div&gt;&lt;span style=&quot;background-color: transparent;&quot;&gt;input valid (&#39;y&#39; or &#39;n&#39;)?&lt;/span&gt;&lt;/div&gt;" style="strokeWidth=2;html=1;shape=mxgraph.flowchart.decision;whiteSpace=wrap;fillColor=#fa6800;fontColor=#000000;strokeColor=#C73500;" vertex="1" parent="RK0en1vMOYa4nUFbqt7z-53">
          <mxGeometry x="150" y="390" width="180" height="130" as="geometry" />
        </mxCell>
        <mxCell id="RK0en1vMOYa4nUFbqt7z-86" value="Update&lt;div&gt;play_again&lt;/div&gt;&lt;div&gt;variable&lt;/div&gt;" style="shape=process;whiteSpace=wrap;html=1;backgroundOutline=1;fillColor=#fa6800;fontColor=#000000;strokeColor=#C73500;" vertex="1" parent="RK0en1vMOYa4nUFbqt7z-53">
          <mxGeometry x="40" y="540" width="120" height="60" as="geometry" />
        </mxCell>
        <mxCell id="RK0en1vMOYa4nUFbqt7z-75" style="edgeStyle=orthogonalEdgeStyle;rounded=0;orthogonalLoop=1;jettySize=auto;html=1;fillColor=#1ba1e2;strokeColor=#006EAF;" edge="1" parent="1" source="RK0en1vMOYa4nUFbqt7z-33" target="RK0en1vMOYa4nUFbqt7z-68">
          <mxGeometry relative="1" as="geometry" />
        </mxCell>
        <mxCell id="RK0en1vMOYa4nUFbqt7z-77" value="YES" style="edgeLabel;html=1;align=center;verticalAlign=middle;resizable=0;points=[];" vertex="1" connectable="0" parent="RK0en1vMOYa4nUFbqt7z-75">
          <mxGeometry x="-0.6868" relative="1" as="geometry">
            <mxPoint as="offset" />
          </mxGeometry>
        </mxCell>
        <mxCell id="RK0en1vMOYa4nUFbqt7z-76" style="edgeStyle=orthogonalEdgeStyle;rounded=0;orthogonalLoop=1;jettySize=auto;html=1;entryX=0.5;entryY=0;entryDx=0;entryDy=0;fillColor=#1ba1e2;strokeColor=#006EAF;" edge="1" parent="1" source="RK0en1vMOYa4nUFbqt7z-35" target="RK0en1vMOYa4nUFbqt7z-66">
          <mxGeometry relative="1" as="geometry" />
        </mxCell>
        <mxCell id="RK0en1vMOYa4nUFbqt7z-78" value="YES" style="edgeLabel;html=1;align=center;verticalAlign=middle;resizable=0;points=[];" vertex="1" connectable="0" parent="RK0en1vMOYa4nUFbqt7z-76">
          <mxGeometry x="-0.5543" y="3" relative="1" as="geometry">
            <mxPoint as="offset" />
          </mxGeometry>
        </mxCell>
        <mxCell id="RK0en1vMOYa4nUFbqt7z-89" style="edgeStyle=orthogonalEdgeStyle;rounded=0;orthogonalLoop=1;jettySize=auto;html=1;entryX=0;entryY=0.5;entryDx=0;entryDy=0;entryPerimeter=0;exitX=0;exitY=0.5;exitDx=0;exitDy=0;fillColor=#1ba1e2;strokeColor=#006EAF;" edge="1" parent="1" source="RK0en1vMOYa4nUFbqt7z-86" target="RK0en1vMOYa4nUFbqt7z-5">
          <mxGeometry relative="1" as="geometry" />
        </mxCell>
      </root>
    </mxGraphModel>
  </diagram>
</mxfile>
